<?xml version="1.0" encoding="utf-8"?>
<!-- Generator: Adobe Illustrator 24.1.0, SVG Export Plug-In . SVG Version: 6.00 Build 0)  -->
<svg version="1.1" id="Layer_1" xmlns="http://www.w3.org/2000/svg" xmlns:xlink="http://www.w3.org/1999/xlink" x="0px" y="0px"
	 viewBox="0 0 600 600" style="enable-background:new 0 0 600 600;" xml:space="preserve">
<style type="text/css">
	.st0{fill:#E09264;}
	.st1{fill:#FFFFFF;}
	.st2{display:none;}
</style>
<path class="st0" d="M52.7,600h494.6c28.98,0,52.7-23.71,52.7-52.7V52.7C600,23.71,576.29,0,547.3,0H52.7C23.71,0,0,23.71,0,52.7
	v494.6C0,576.29,23.71,600,52.7,600z"/>
<path class="st1" d="M560.12,32.77c6.61,8.33,10.58,18.85,10.58,30.25v458.31c0,26.86-21.97,48.83-48.83,48.83H63.56
	c-11.4,0-21.91-3.97-30.25-10.58c8.96,11.3,22.79,18.58,38.25,18.58h458.31c26.86,0,48.83-21.97,48.83-48.83V71.02
	C578.7,55.56,571.42,41.74,560.12,32.77z"/>
<g id="cksS38_1_" class="st2">
	
		<image style="display:inline;overflow:visible;" width="188" height="188" id="cksS38" xlink:href="C2BDBA7CEAF63B9A.jpg"  transform="matrix(3.1896 0 0 3.1896 0.8931 0.3511)">
	</image>
</g>
<path class="st1" d="M217.97,413.46c89.19-36.94,15.57-110.56-21.37-21.37c36.94-89.19-67.17-89.19-30.23,0
	C129.43,302.9,55.81,376.52,145,413.46c-89.19-36.94-89.19,67.17,0,30.23c-89.19,36.94-15.57,110.56,21.37,21.37
	c-36.94,89.19,67.17,89.19,30.23,0c36.94,89.19,110.56,15.57,21.37-21.37C307.16,480.63,307.16,376.52,217.97,413.46z
	 M182.87,449.79c-12.73,0-23.06-10.32-23.06-23.06c0-12.73,10.32-23.06,23.06-23.06s23.06,10.32,23.06,23.06
	C205.93,439.47,195.61,449.79,182.87,449.79z"/>
<g>
	<circle class="st1" cx="180.46" cy="185.92" r="46.03"/>
	<path class="st1" d="M275.89,174.94H251.3c-6.04,0-10.98,4.94-10.98,10.98s4.94,10.98,10.98,10.98h24.59
		c6.04,0,10.98-4.94,10.98-10.98S281.93,174.94,275.89,174.94z"/>
	<path class="st1" d="M120.6,185.92c0-6.04-4.94-10.98-10.98-10.98H85.03c-6.04,0-10.98,4.94-10.98,10.98s4.94,10.98,10.98,10.98
		h24.59C115.66,196.9,120.6,191.96,120.6,185.92z"/>
	<path class="st1" d="M238.32,143.59l17.39-17.39c4.27-4.27,4.27-11.26,0-15.53l0,0c-4.27-4.27-11.26-4.27-15.53,0l-17.39,17.39
		c-4.27,4.27-4.27,11.26,0,15.53C227.06,147.86,234.05,147.86,238.32,143.59z"/>
	<path class="st1" d="M122.61,228.24l-17.39,17.39c-4.27,4.27-4.27,11.26,0,15.53h0c4.27,4.27,11.26,4.27,15.53,0l17.39-17.39
		c4.27-4.27,4.27-11.26,0-15.53S126.88,223.97,122.61,228.24z"/>
	<path class="st1" d="M180.46,126.06c6.04,0,10.98-4.94,10.98-10.98V90.49c0-6.04-4.94-10.98-10.98-10.98s-10.98,4.94-10.98,10.98
		v24.59C169.48,121.12,174.42,126.06,180.46,126.06z"/>
	<path class="st1" d="M180.46,245.78c-6.04,0-10.98,4.94-10.98,10.98v24.59c0,6.04,4.94,10.98,10.98,10.98s10.98-4.94,10.98-10.98
		v-24.59C191.44,250.72,186.5,245.78,180.46,245.78z"/>
	<path class="st1" d="M122.61,143.59c4.27,4.27,11.26,4.27,15.53,0c4.27-4.27,4.27-11.26,0-15.53l-17.39-17.39
		c-4.27-4.27-11.26-4.27-15.53,0l0,0c-4.27,4.27-4.27,11.26,0,15.53L122.61,143.59z"/>
	<path class="st1" d="M238.32,228.24c-4.27-4.27-11.26-4.27-15.53,0s-4.27,11.26,0,15.53l17.39,17.39c4.27,4.27,11.26,4.27,15.53,0
		h0c4.27-4.27,4.27-11.26,0-15.53L238.32,228.24z"/>
</g>
<path class="st1" d="M397.25,244.7c0,0,36.8,27.07,76.71-3.52s30.59-147.65,30.59-147.65s-2.66-19.07-15.52-6.65
	c-12.86,12.41-44.78,30.59-76.26,45.23s-74.93,32.81-42.57,86.02c0,0,25.87-23.06,61.93-38.13c0,0-47.3,24.39-75.23,85.57
	c0,0-3.99,12.41-3.1,16.41c0.89,3.99,8.42,7.98,11.53,7.54c3.1-0.44,8.42-7.09,10.2-11.53C377.3,273.55,386.17,252.22,397.25,244.7z
	"/>
<path class="st1" d="M510.7,469.95l-23.73-13.7l17.87-4.79c4.02-1.08,6.43-5.25,5.35-9.27c-1.08-4.02-5.25-6.43-9.27-5.35
	l-32.49,8.7l-29.43-16.99l29.43-16.99l32.49,8.7c4.02,1.08,8.19-1.33,9.27-5.35c1.08-4.02-1.33-8.19-5.35-9.27l-17.87-4.79
	l23.73-13.7c3.59-2.07,4.83-6.71,2.76-10.3c-2.07-3.59-6.71-4.83-10.3-2.76l-23.73,13.7l4.79-17.87c1.08-4.02-1.33-8.19-5.35-9.27h0
	c-4.02-1.08-8.19,1.33-9.27,5.35l-8.7,32.49l-29.43,16.99v-33.99l23.78-23.78c2.94-2.94,2.94-7.76,0-10.7v0
	c-2.94-2.94-7.76-2.94-10.7,0l-13.08,13.08v-27.4c0-4.15-3.39-7.54-7.54-7.54h0c-4.15,0-7.54,3.39-7.54,7.54v27.4l-13.08-13.08
	c-2.94-2.94-7.76-2.94-10.7,0v0c-2.94,2.94-2.94,7.76,0,10.7l23.78,23.78v33.99l-29.43-16.99l-8.7-32.49
	c-1.08-4.02-5.25-6.43-9.27-5.35c-4.02,1.08-6.43,5.25-5.35,9.27l4.79,17.87l-23.73-13.7c-3.59-2.07-8.22-0.83-10.3,2.76h0
	c-2.07,3.59-0.83,8.22,2.76,10.3l23.73,13.7l-17.87,4.79c-4.02,1.08-6.43,5.25-5.35,9.27c1.08,4.02,5.25,6.43,9.27,5.35l32.49-8.7
	l29.43,16.99l-29.43,16.99l-32.49-8.7c-4.02-1.08-8.19,1.33-9.27,5.35c-1.08,4.02,1.33,8.19,5.35,9.27l17.87,4.79l-23.73,13.7
	c-3.59,2.07-4.83,6.71-2.76,10.3h0c2.07,3.59,6.71,4.83,10.3,2.76l23.73-13.7l-4.79,17.87c-1.08,4.02,1.33,8.19,5.35,9.27
	c4.02,1.08,8.19-1.33,9.27-5.35l8.7-32.49l29.43-16.99v33.99l-23.78,23.78c-2.94,2.94-2.94,7.76,0,10.7c2.94,2.94,7.76,2.94,10.7,0
	l13.08-13.08v27.4c0,4.15,3.39,7.54,7.54,7.54h0c4.15,0,7.54-3.39,7.54-7.54v-27.4l13.08,13.08c2.94,2.94,7.76,2.94,10.7,0
	c2.94-2.94,2.94-7.76,0-10.7l-23.78-23.78v-33.99l29.43,16.99l8.7,32.49c1.08,4.02,5.25,6.43,9.27,5.35h0
	c4.02-1.08,6.43-5.25,5.35-9.27l-4.79-17.87l23.73,13.7c3.59,2.07,8.22,0.83,10.3-2.76C515.53,476.65,514.29,472.02,510.7,469.95z"
	/>
</svg>
